<svg xmlns="http://www.w3.org/2000/svg" version="1.1" xmlns:xlink="http://www.w3.org/1999/xlink" xmlns:svgjs="http://svgjs.com/svgjs" width="512" height="512" x="0" y="0" viewBox="0 0 64 64" style="enable-background:new 0 0 512 512" xml:space="preserve" class=""><g><path d="M25 6.953A26.028 26.028 0 0 1 32 6a25.906 25.906 0 0 1 17.877 7.123L48 15l8 2-2-8-1.297 1.297C47.318 5.159 40.03 2 32 2c-2.77 0-5.453.376-8 1.078V7zM3.078 40H7l-.047-1A26.028 26.028 0 0 1 6 32a25.906 25.906 0 0 1 7.123-17.877L15 16l2-8-8 2 1.297 1.297C5.159 16.682 2 23.97 2 32c0 2.77.376 5.453 1.078 8zM58 29a25.906 25.906 0 0 1-7.123 17.877L49 45l-2 8 8-2-1.297-1.297C58.841 44.318 62 37.03 62 29c0-2.77-.376-5.453-1.078-8H57l.047 1c.621 2.227.953 4.575.953 7z" fill="#d8232a" data-original="#000000" class=""></path><path d="M44 55V42h3a6 6 0 0 0 6-6h-4a5.993 5.993 0 0 0-5 2.686V32h3a6 6 0 0 0 6-6h-4a5.993 5.993 0 0 0-5 2.686V28a6 6 0 0 0-6-6h-4a6 6 0 0 0 6 6h2v6.686A5.993 5.993 0 0 0 37 32h-4a6 6 0 0 0 6 6h3v17H32V21H14v14h14v20h-2V37H12v18H1v8h62v-8zM18 33h-2v-2h2zm0-4h-2v-2h2zm0-4h-2v-2h2zm4 8h-2v-2h2zm0-4h-2v-2h2zm0-4h-2v-2h2zm4 8h-2v-2h2zm0-4h-2v-2h2zm0-4h-2v-2h2zm2-2h2v2h-2zm0 4h2v2h-2zm0 4h2v2h-2zm-6 8h2v2h-2zm0 4h2v2h-2zm0 4h2v2h-2zm-4-8h2v2h-2zm0 4h2v2h-2zm0 4h2v2h-2zm-4-8h2v2h-2zm0 4h2v2h-2zm0 4h2v2h-2z" fill="#d8232a" data-original="#000000" class=""></path></g></svg>