<svg xmlns="http://www.w3.org/2000/svg" version="1.1" xmlns:xlink="http://www.w3.org/1999/xlink" xmlns:svgjs="http://svgjs.com/svgjs" width="512" height="512" x="0" y="0" viewBox="0 0 64 64" style="enable-background:new 0 0 512 512" xml:space="preserve" class=""><g><path d="M17.302 10.524a26.08 26.08 0 0 1 31.188 1.365h-3.042a1.001 1.001 0 0 0 0 2.002h5.65a1.018 1.018 0 0 0 1.013-1.001V7.227a1.001 1.001 0 0 0-2.002 0v3.392a28.123 28.123 0 0 0-33.94-1.745 1.001 1.001 0 0 0 1.133 1.65zM46.698 53.476a26.08 26.08 0 0 1-31.188-1.365h3.042a1.001 1.001 0 0 0 0-2.002h-5.65a1.019 1.019 0 0 0-1.013 1.001v5.663a1.001 1.001 0 0 0 2.002 0V53.38a28.123 28.123 0 0 0 33.94 1.745 1.001 1.001 0 0 0-1.133-1.65zM5.975 32a25.804 25.804 0 0 1 5.914-16.49v3.042a1.001 1.001 0 0 0 2.002 0v-5.65a1.018 1.018 0 0 0-1.001-1.013H7.227a1.001 1.001 0 0 0 0 2.002h3.392a28.119 28.119 0 0 0-1.746 33.94 1 1 0 0 0 1.65-1.133A25.856 25.856 0 0 1 5.975 32zM56.773 50.11h-3.392a28.119 28.119 0 0 0 1.746-33.941 1 1 0 0 0-1.65 1.133A26.078 26.078 0 0 1 52.11 48.49v-3.042a1.001 1.001 0 0 0-2.002 0v5.65a1.014 1.014 0 0 0 .62.936 3.842 3.842 0 0 0 .381.077h5.663a1.001 1.001 0 0 0 0-2.002z" fill="#d8232a" data-original="#000000" class=""></path><path d="M32 11.98c-16.428-.11-25.979 19.223-15.895 32.192C27.658 59.272 51.999 51.014 52.019 32 52.233 21.226 42.743 11.799 32 11.98zm7.788 27.808a1.018 1.018 0 0 1-1.422 0l-5.075-5.085A2.994 2.994 0 1 1 31 29.177v-9.189a1.001 1.001 0 0 1 2.002 0v9.19a3.009 3.009 0 0 1 1.702 4.113l5.085 5.075a1.009 1.009 0 0 1 0 1.422z" fill="#d8232a" data-original="#000000" class=""></path><path d="M32 30.999a1.001 1.001 0 0 0 0 2.002 1.001 1.001 0 0 0 0-2.002z" fill="#d8232a" data-original="#000000" class=""></path></g></svg>